<svg width="1881" height="335" xmlns="http://www.w3.org/2000/svg" xmlns:xlink="http://www.w3.org/1999/xlink" overflow="hidden"><defs><clipPath id="clip0"><path d="M35 156 1916 156 1916 491 35 491Z" fill-rule="evenodd" clip-rule="evenodd"/></clipPath><clipPath id="clip1"><path d="M35 157 1915 157 1915 490 35 490Z" fill-rule="evenodd" clip-rule="evenodd"/></clipPath><clipPath id="clip2"><path d="M35 157 1915 157 1915 491 35 491Z" fill-rule="evenodd" clip-rule="evenodd"/></clipPath></defs><g clip-path="url(#clip0)" transform="translate(-35 -156)"><g clip-path="url(#clip1)"><g clip-path="url(#clip2)"><path d="M9.60999 10.2815 36.81 10.2815 36.81 37.4815 9.60999 37.4815Z" fill="#82F4D8" fill-rule="evenodd" transform="matrix(3.6447 -3.63055 3.6447 3.63055 37.2384 317.886)"/><path d="M39.6231 29.1744 39.6231 40.1165 6.79692 40.1165 6.79692 29.1744M6.79692 18.5886 6.79692 7.64654 39.6231 7.64654 39.6231 18.5886" stroke="#000000" stroke-width="5.7" fill="none" fill-rule="evenodd" transform="matrix(-3.6447 3.63055 -3.6447 -3.63055 380.507 322.762)"/><path d="M605.808 268.977 645.343 268.977 645.343 281.685 605.808 281.685 605.808 310.63 591.689 310.63 591.689 240.032 659.462 240.032 659.462 252.739 605.808 252.739 605.808 268.977ZM675.7 310.63 675.7 240.032 726.53 240.032C739.238 240.032 747.709 248.504 747.709 261.211 747.709 272.507 740.367 280.414 729.213 281.543 730.201 282.673 731.19 283.944 731.754 284.932L747.709 310.63 731.754 310.63 713.822 281.685 689.819 281.685 689.819 310.63 675.7 310.63ZM689.819 268.977 726.53 268.977C730.766 268.977 733.59 266.153 733.59 261.917L733.59 259.799C733.59 255.563 730.766 252.739 726.53 252.739L689.819 252.739 689.819 268.977ZM833.838 252.739 778.772 252.739 778.772 268.977 819.719 268.977 819.719 281.685 778.772 281.685 778.772 297.922 833.838 297.922 833.838 310.63 764.653 310.63 764.653 240.032 833.838 240.032 833.838 252.739ZM920.674 252.739 865.607 252.739 865.607 268.977 906.554 268.977 906.554 281.685 865.607 281.685 865.607 297.922 920.674 297.922 920.674 310.63 851.488 310.63 851.488 240.032 920.674 240.032 920.674 252.739ZM986.329 310.63 972.21 310.63 972.21 240.032 986.329 240.032 986.329 310.63ZM1063.99 310.63 1020.22 261.917 1020.22 310.63 1006.1 310.63 1006.1 240.032 1018.8 240.032 1062.57 288.744 1062.57 240.032 1076.69 240.032 1076.69 310.63 1063.99 310.63ZM1126.82 299.334C1139.67 299.334 1146.59 295.663 1146.59 289.027 1146.59 283.379 1140.37 280.979 1126.25 280.979 1103.94 280.979 1094.34 275.048 1094.34 260.788 1094.34 246.386 1105.64 238.62 1126.82 238.62 1146.3 238.62 1159.29 247.656 1159.29 261.211L1145.17 261.211C1145.17 255.281 1137.83 251.328 1126.82 251.328 1114.82 251.328 1108.46 254.575 1108.46 260.788 1108.46 266.153 1114.11 268.271 1127.52 268.271 1150.82 268.271 1160.71 274.625 1160.71 289.027 1160.71 303.993 1148.85 312.042 1126.82 312.042 1106.49 312.042 1092.93 303.005 1092.93 289.45L1107.05 289.45C1107.05 295.38 1114.96 299.334 1126.82 299.334ZM1210.83 298.628C1222.27 298.628 1230.6 289.45 1230.6 276.743L1230.6 240.032 1244.72 240.032 1244.72 276.743C1244.72 297.075 1230.31 312.042 1210.83 312.042 1191.34 312.042 1176.94 297.075 1176.94 276.743L1176.94 240.032 1191.06 240.032 1191.06 276.743C1191.06 289.45 1199.39 298.628 1210.83 298.628ZM1264.48 310.63 1264.48 240.032 1315.31 240.032C1328.02 240.032 1336.49 248.504 1336.49 261.211 1336.49 272.507 1329.15 280.414 1318 281.543 1318.99 282.673 1319.97 283.944 1320.54 284.932L1336.49 310.63 1320.54 310.63 1302.61 281.685 1278.6 281.685 1278.6 310.63 1264.48 310.63ZM1278.6 268.977 1315.31 268.977C1319.55 268.977 1322.37 266.153 1322.37 261.917L1322.37 259.799C1322.37 255.563 1319.55 252.739 1315.31 252.739L1278.6 252.739 1278.6 268.977ZM1362.05 310.63 1347.08 310.63 1376.03 240.032 1397.21 240.032 1426.15 310.63 1410.9 310.63 1405.11 296.51 1367.84 296.51 1362.05 310.63ZM1373.06 283.802 1399.89 283.802 1387.18 252.739 1385.77 252.739 1373.06 283.802ZM1497.46 310.63 1453.69 261.917 1453.69 310.63 1439.57 310.63 1439.57 240.032 1452.27 240.032 1496.04 288.744 1496.04 240.032 1510.16 240.032 1510.16 310.63 1497.46 310.63ZM1563.11 298.628C1573.7 298.628 1581.89 291.709 1584.29 281.685L1599.4 281.685C1596.58 299.616 1582.17 312.042 1563.11 312.042 1541.93 312.042 1526.4 296.51 1526.4 275.331 1526.4 254.151 1541.93 238.62 1563.11 238.62 1582.17 238.62 1596.58 251.045 1599.4 268.977L1584.29 268.977C1581.89 258.811 1573.7 252.034 1563.11 252.034 1550.4 252.034 1541.23 261.917 1541.23 275.331 1541.23 288.744 1550.4 298.628 1563.11 298.628ZM1684.82 252.739 1629.76 252.739 1629.76 268.977 1670.7 268.977 1670.7 281.685 1629.76 281.685 1629.76 297.922 1684.82 297.922 1684.82 310.63 1615.64 310.63 1615.64 240.032 1684.82 240.032 1684.82 252.739ZM1774.48 240.032C1795.66 240.032 1811.19 254.857 1811.19 275.331 1811.19 295.663 1795.66 310.63 1774.48 310.63L1739.18 310.63 1739.18 240.032 1774.48 240.032ZM1753.3 252.739 1753.3 297.922 1774.48 297.922C1787.19 297.922 1796.37 288.462 1796.37 275.331 1796.37 262.341 1787.19 252.739 1774.48 252.739L1753.3 252.739ZM1830.97 310.63 1816.01 310.63 1844.95 240.032 1866.13 240.032 1895.07 310.63 1879.83 310.63 1874.04 296.51 1836.76 296.51 1830.97 310.63ZM1841.99 283.802 1868.81 283.802 1856.1 252.739 1854.69 252.739 1841.99 283.802ZM1892.12 252.739 1892.12 240.032 1962.72 240.032 1962.72 252.739 1934.48 252.739 1934.48 310.63 1920.36 310.63 1920.36 252.739 1892.12 252.739ZM1974.73 310.63 1959.77 310.63 1988.71 240.032 2009.89 240.032 2038.84 310.63 2023.59 310.63 2017.8 296.51 1980.52 296.51 1974.73 310.63ZM1985.75 283.802 2012.57 283.802 1999.87 252.739 1998.46 252.739 1985.75 283.802Z" transform="matrix(1.0039 0 -0 1 -153.016 -61.5779)"/><path d="M622.495 521.139 592.972 521.139 592.972 373.526 622.495 373.526 622.495 521.139ZM801.684 521.139 710.164 419.286 710.164 521.139 680.642 521.139 680.642 373.526 707.212 373.526 798.732 475.379 798.732 373.526 828.255 373.526 828.255 521.139 801.684 521.139ZM915.924 521.139 886.402 521.139 886.402 373.526 915.924 373.526 915.924 521.139ZM963.738 400.096 963.738 373.526 1111.35 373.526 1111.35 400.096 1052.31 400.096 1052.31 521.139 1022.78 521.139 1022.78 400.096 963.738 400.096ZM1188.69 521.139 1159.17 521.139 1159.17 373.526 1188.69 373.526 1188.69 521.139ZM1264.84 521.139 1233.55 521.139 1294.07 373.526 1338.35 373.526 1398.88 521.139 1366.99 521.139 1354.89 491.616 1276.95 491.616 1264.84 521.139ZM1287.87 465.046 1343.96 465.046 1317.39 400.096 1314.44 400.096 1287.87 465.046ZM1409.79 400.096 1409.79 373.526 1557.4 373.526 1557.4 400.096 1498.35 400.096 1498.35 521.139 1468.83 521.139 1468.83 400.096 1409.79 400.096ZM1634.74 521.139 1605.21 521.139 1605.21 373.526 1634.74 373.526 1634.74 521.139ZM1679.6 373.526 1711.48 373.526 1761.08 494.568 1764.03 494.568 1813.63 373.526 1844.92 373.526 1784.4 521.139 1740.12 521.139 1679.6 373.526ZM2034.45 400.096 1919.31 400.096 1919.31 434.047 2004.92 434.047 2004.92 460.617 1919.31 460.617 1919.31 494.568 2034.45 494.568 2034.45 521.139 1889.79 521.139 1889.79 373.526 2034.45 373.526 2034.45 400.096Z" transform="matrix(1.0039 0 -0 1 -153.016 -61.5779)"/></g></g></g></svg>